<mxfile host="app.diagrams.net" modified="2024-01-02T19:46:42.550Z" agent="Mozilla/5.0 (Windows NT 10.0; Win64; x64) AppleWebKit/537.36 (KHTML, like Gecko) Chrome/120.0.0.0 Safari/537.36" etag="FELqsweNwiOhzwBOUFfE" version="22.1.16" type="device">
  <diagram name="Página-1" id="IKo1CnJ3qP8-uf1meuKb">
    <mxGraphModel dx="1974" dy="618" grid="1" gridSize="10" guides="1" tooltips="1" connect="1" arrows="1" fold="1" page="1" pageScale="1" pageWidth="827" pageHeight="1169" math="0" shadow="0">
      <root>
        <mxCell id="0" />
        <mxCell id="1" parent="0" />
        <mxCell id="CLevq655X7L3FwRWl0a1-22" value="" style="shape=umlLifeline;perimeter=lifelinePerimeter;whiteSpace=wrap;container=1;dropTarget=0;collapsible=0;recursiveResize=0;outlineConnect=0;portConstraint=eastwest;newEdgeStyle={&quot;edgeStyle&quot;:&quot;elbowEdgeStyle&quot;,&quot;elbow&quot;:&quot;vertical&quot;,&quot;curved&quot;:0,&quot;rounded&quot;:0};size=500;strokeOpacity=100;fillColor=#72C9F7;" parent="1" vertex="1">
          <mxGeometry x="30" y="70" width="980" height="500" as="geometry" />
        </mxCell>
        <mxCell id="CLevq655X7L3FwRWl0a1-25" value="&lt;span style=&quot;color: rgb(0, 0, 0); font-family: Helvetica; font-size: 12px; font-style: normal; font-variant-ligatures: normal; font-variant-caps: normal; font-weight: 400; letter-spacing: normal; orphans: 2; text-align: center; text-indent: 0px; text-transform: none; widows: 2; word-spacing: 0px; -webkit-text-stroke-width: 0px; text-decoration-thickness: initial; text-decoration-style: initial; text-decoration-color: initial; float: none; display: inline !important;&quot;&gt;&amp;lt;&amp;lt;System&amp;gt;&amp;gt; &lt;br&gt;RobDroneGo&lt;/span&gt;" style="text;whiteSpace=wrap;html=1;" parent="1" vertex="1">
          <mxGeometry x="484.25" y="72" width="77.5" height="40" as="geometry" />
        </mxCell>
        <mxCell id="CLevq655X7L3FwRWl0a1-26" value="" style="shape=umlLifeline;perimeter=lifelinePerimeter;whiteSpace=wrap;container=1;dropTarget=0;collapsible=0;recursiveResize=0;outlineConnect=0;portConstraint=eastwest;newEdgeStyle={&quot;edgeStyle&quot;:&quot;elbowEdgeStyle&quot;,&quot;elbow&quot;:&quot;vertical&quot;,&quot;curved&quot;:0,&quot;rounded&quot;:0};size=500;fillColor=#72c9f7;strokeColor=#000000;" parent="1" vertex="1">
          <mxGeometry x="66" y="687.5" width="950" height="400" as="geometry" />
        </mxCell>
        <mxCell id="CLevq655X7L3FwRWl0a1-27" value="&lt;span style=&quot;font-family: Helvetica; font-size: 12px; font-style: normal; font-variant-ligatures: normal; font-variant-caps: normal; font-weight: 400; letter-spacing: normal; orphans: 2; text-align: center; text-indent: 0px; text-transform: none; widows: 2; word-spacing: 0px; -webkit-text-stroke-width: 0px; text-decoration-thickness: initial; text-decoration-style: initial; text-decoration-color: initial; float: none; display: inline !important;&quot;&gt;&amp;lt;&amp;lt;System&amp;gt;&amp;gt; ´&lt;br&gt;RobDroneGo&lt;/span&gt;" style="text;whiteSpace=wrap;html=1;fillColor=#72C9F7;" parent="1" vertex="1">
          <mxGeometry x="560" y="705" width="81" height="35" as="geometry" />
        </mxCell>
        <mxCell id="CLevq655X7L3FwRWl0a1-30" value="&lt;&lt;component&gt;&gt; Gestão de Tarefas" style="shape=umlLifeline;perimeter=lifelinePerimeter;whiteSpace=wrap;container=1;dropTarget=0;collapsible=0;recursiveResize=0;outlineConnect=0;portConstraint=eastwest;newEdgeStyle={&quot;edgeStyle&quot;:&quot;elbowEdgeStyle&quot;,&quot;elbow&quot;:&quot;vertical&quot;,&quot;curved&quot;:0,&quot;rounded&quot;:0};size=70;fillColor=#72C9F7;" parent="1" vertex="1">
          <mxGeometry x="86" y="779.5" width="120" height="70" as="geometry" />
        </mxCell>
        <mxCell id="CLevq655X7L3FwRWl0a1-31" value="&lt;&lt;component&gt;&gt; Planeamento" style="shape=umlLifeline;perimeter=lifelinePerimeter;whiteSpace=wrap;container=1;dropTarget=0;collapsible=0;recursiveResize=0;outlineConnect=0;portConstraint=eastwest;newEdgeStyle={&quot;edgeStyle&quot;:&quot;elbowEdgeStyle&quot;,&quot;elbow&quot;:&quot;vertical&quot;,&quot;curved&quot;:0,&quot;rounded&quot;:0};size=70;fillColor=#72C9F7;" parent="1" vertex="1">
          <mxGeometry x="676.5" y="892.5" width="119" height="70" as="geometry" />
        </mxCell>
        <mxCell id="CLevq655X7L3FwRWl0a1-32" value="&lt;&lt;component&gt;&gt; Gestão Utilizadores" style="shape=umlLifeline;perimeter=lifelinePerimeter;whiteSpace=wrap;container=1;dropTarget=0;collapsible=0;recursiveResize=0;outlineConnect=0;portConstraint=eastwest;newEdgeStyle={&quot;edgeStyle&quot;:&quot;elbowEdgeStyle&quot;,&quot;elbow&quot;:&quot;vertical&quot;,&quot;curved&quot;:0,&quot;rounded&quot;:0};size=65;fillColor=#72C9F7;" parent="1" vertex="1">
          <mxGeometry x="786" y="714.5" width="120" height="65" as="geometry" />
        </mxCell>
        <mxCell id="CLevq655X7L3FwRWl0a1-33" value="&lt;&lt;component&gt;&gt; Gestão de Campus" style="shape=umlLifeline;perimeter=lifelinePerimeter;whiteSpace=wrap;container=1;dropTarget=0;collapsible=0;recursiveResize=0;outlineConnect=0;portConstraint=eastwest;newEdgeStyle={&quot;edgeStyle&quot;:&quot;elbowEdgeStyle&quot;,&quot;elbow&quot;:&quot;vertical&quot;,&quot;curved&quot;:0,&quot;rounded&quot;:0};size=70;fillColor=none;" parent="1" vertex="1">
          <mxGeometry x="421" y="779.5" width="111.5" height="60" as="geometry" />
        </mxCell>
        <mxCell id="CLevq655X7L3FwRWl0a1-50" value="" style="endArrow=none;html=1;rounded=0;align=center;verticalAlign=top;endFill=0;labelBackgroundColor=none;endSize=2;exitX=0.5;exitY=0;exitDx=0;exitDy=0;entryX=0.392;entryY=0.924;entryDx=0;entryDy=0;entryPerimeter=0;" parent="1" source="CLevq655X7L3FwRWl0a1-53" edge="1" target="CLevq655X7L3FwRWl0a1-51">
          <mxGeometry relative="1" as="geometry">
            <mxPoint x="837" y="655" as="targetPoint" />
          </mxGeometry>
        </mxCell>
        <mxCell id="CLevq655X7L3FwRWl0a1-51" value="" style="ellipse;html=1;fontSize=11;align=center;fillColor=#72C9F7;points=[];aspect=fixed;resizable=0;verticalAlign=bottom;labelPosition=center;verticalLabelPosition=top;flipH=1;strokeColor=#000000;" parent="1" vertex="1">
          <mxGeometry x="784" y="654" width="8" height="8" as="geometry" />
        </mxCell>
        <mxCell id="CLevq655X7L3FwRWl0a1-53" value="" style="html=1;rounded=0;fillColor=#72C9F7;" parent="1" vertex="1">
          <mxGeometry x="780.5" y="679" width="15" height="15" as="geometry" />
        </mxCell>
        <mxCell id="Wlj1dqBPHQL1adGy5RKg-12" value="" style="endArrow=none;html=1;rounded=0;align=center;verticalAlign=top;endFill=0;labelBackgroundColor=none;endSize=2;exitX=1;exitY=0.25;exitDx=0;exitDy=0;startFill=0;anchorPointDirection=0;bendable=0;entryX=1;entryY=0.25;entryDx=0;entryDy=0;" parent="1" edge="1">
          <mxGeometry relative="1" as="geometry">
            <mxPoint x="209" y="778.75" as="sourcePoint" />
            <mxPoint x="209" y="778.75" as="targetPoint" />
          </mxGeometry>
        </mxCell>
        <mxCell id="Wlj1dqBPHQL1adGy5RKg-53" value="" style="html=1;rounded=0;fillColor=#72C9F7;" parent="1" vertex="1">
          <mxGeometry x="669" y="917" width="15" height="15" as="geometry" />
        </mxCell>
        <mxCell id="Wlj1dqBPHQL1adGy5RKg-66" value="&amp;lt;&amp;lt;component&amp;gt;&amp;gt; &lt;br&gt;MDTarefas" style="shape=folder;tabWidth=74;tabHeight=15;tabPosition=left;strokeWidth=1;html=1;whiteSpace=wrap;align=center;fillColor=#72C9F7;" parent="1" vertex="1">
          <mxGeometry x="79.25" y="281.5" width="150" height="80" as="geometry" />
        </mxCell>
        <mxCell id="Wlj1dqBPHQL1adGy5RKg-69" value="&amp;lt;&amp;lt;component&amp;gt;&amp;gt;&lt;br&gt;MDRoboISEP" style="shape=folder;tabWidth=74;tabHeight=15;tabPosition=left;strokeWidth=1;html=1;whiteSpace=wrap;align=center;fillColor=#72C9F7;" parent="1" vertex="1">
          <mxGeometry x="410" y="287.5" width="160" height="80" as="geometry" />
        </mxCell>
        <mxCell id="Wlj1dqBPHQL1adGy5RKg-70" value="&amp;lt;&amp;lt;component&amp;gt;&amp;gt; &lt;br&gt;SPA" style="shape=folder;tabWidth=74;tabHeight=15;tabPosition=left;strokeWidth=1;html=1;whiteSpace=wrap;align=center;fillColor=#72C9F7;" parent="1" vertex="1">
          <mxGeometry x="65" y="82.9" width="160" height="80" as="geometry" />
        </mxCell>
        <mxCell id="Wlj1dqBPHQL1adGy5RKg-71" value="&amp;lt;&amp;lt;component&amp;gt;&amp;gt; &lt;br&gt;auth" style="shape=folder;tabWidth=74;tabHeight=15;tabPosition=left;strokeWidth=1;html=1;whiteSpace=wrap;align=center;fillColor=#72C9F7;" parent="1" vertex="1">
          <mxGeometry x="840" y="90" width="160" height="80" as="geometry" />
        </mxCell>
        <mxCell id="Wlj1dqBPHQL1adGy5RKg-72" value="&amp;lt;&amp;lt;component&amp;gt;&amp;gt; Planeamento" style="shape=folder;tabWidth=74;tabHeight=15;tabPosition=left;strokeWidth=1;html=1;whiteSpace=wrap;align=center;fillColor=#72C9F7;" parent="1" vertex="1">
          <mxGeometry x="641" y="390" width="160" height="80" as="geometry" />
        </mxCell>
        <mxCell id="Wlj1dqBPHQL1adGy5RKg-76" value="&lt;&lt;component&gt;&gt; Gestão de Frota" style="shape=umlLifeline;perimeter=lifelinePerimeter;whiteSpace=wrap;container=1;dropTarget=0;collapsible=0;recursiveResize=0;outlineConnect=0;portConstraint=eastwest;newEdgeStyle={&quot;edgeStyle&quot;:&quot;elbowEdgeStyle&quot;,&quot;elbow&quot;:&quot;vertical&quot;,&quot;curved&quot;:0,&quot;rounded&quot;:0};size=70;fillColor=#72C9F7;" parent="1" vertex="1">
          <mxGeometry x="254.75" y="764.5" width="108" height="70" as="geometry" />
        </mxCell>
        <mxCell id="Wlj1dqBPHQL1adGy5RKg-77" value="" style="html=1;rounded=0;strokeColor=default;fillColor=#72C9F7;" parent="1" vertex="1">
          <mxGeometry x="286" y="824.5" width="15" height="15" as="geometry" />
        </mxCell>
        <mxCell id="Wlj1dqBPHQL1adGy5RKg-78" value="" style="html=1;rounded=0;fillColor=#72C9F7;" parent="1" vertex="1">
          <mxGeometry x="121.5" y="839.5" width="15" height="15" as="geometry" />
        </mxCell>
        <mxCell id="Wlj1dqBPHQL1adGy5RKg-84" value="" style="html=1;rounded=0;fillColor=#72C9F7;" parent="1" vertex="1">
          <mxGeometry x="469.25" y="834.5" width="15" height="15" as="geometry" />
        </mxCell>
        <mxCell id="Wlj1dqBPHQL1adGy5RKg-88" value="" style="html=1;rounded=0;fillColor=#72C9F7;" parent="1" vertex="1">
          <mxGeometry x="669" y="892.5" width="15" height="15" as="geometry" />
        </mxCell>
        <mxCell id="Wlj1dqBPHQL1adGy5RKg-89" value="" style="html=1;rounded=0;fillColor=#72C9F7;" parent="1" vertex="1">
          <mxGeometry x="668" y="940.5" width="15" height="15" as="geometry" />
        </mxCell>
        <mxCell id="Wlj1dqBPHQL1adGy5RKg-94" value="" style="endArrow=none;dashed=1;html=1;rounded=0;exitX=0.068;exitY=-0.02;exitDx=0;exitDy=0;exitPerimeter=0;endFill=0;startArrow=open;startFill=0;entryX=0;entryY=0;entryDx=160;entryDy=80;entryPerimeter=0;" parent="1" source="CLevq655X7L3FwRWl0a1-33" target="Wlj1dqBPHQL1adGy5RKg-70" edge="1">
          <mxGeometry width="50" height="50" relative="1" as="geometry">
            <mxPoint x="147.43000000000006" y="697.9000000000001" as="sourcePoint" />
            <mxPoint x="390" y="570" as="targetPoint" />
            <Array as="points">
              <mxPoint x="360" y="280" />
            </Array>
          </mxGeometry>
        </mxCell>
        <mxCell id="Wlj1dqBPHQL1adGy5RKg-96" value="" style="endArrow=none;dashed=1;html=1;rounded=0;entryX=0.25;entryY=1;entryDx=0;entryDy=0;entryPerimeter=0;endFill=0;startArrow=open;startFill=0;" parent="1" target="Wlj1dqBPHQL1adGy5RKg-71" edge="1">
          <mxGeometry width="50" height="50" relative="1" as="geometry">
            <mxPoint x="870" y="716" as="sourcePoint" />
            <mxPoint x="864.8" y="227.92000000000002" as="targetPoint" />
          </mxGeometry>
        </mxCell>
        <mxCell id="Wlj1dqBPHQL1adGy5RKg-97" value="" style="endArrow=none;dashed=1;html=1;rounded=0;exitX=1.008;exitY=0.019;exitDx=0;exitDy=0;exitPerimeter=0;entryX=0;entryY=0;entryDx=0;entryDy=80;entryPerimeter=0;endFill=0;startArrow=open;startFill=0;" parent="1" source="Wlj1dqBPHQL1adGy5RKg-76" target="Wlj1dqBPHQL1adGy5RKg-69" edge="1">
          <mxGeometry width="50" height="50" relative="1" as="geometry">
            <mxPoint x="250" y="750" as="sourcePoint" />
            <mxPoint x="300" y="700" as="targetPoint" />
          </mxGeometry>
        </mxCell>
        <mxCell id="Wlj1dqBPHQL1adGy5RKg-98" value="" style="endArrow=none;dashed=1;html=1;rounded=0;entryX=0;entryY=0;entryDx=160;entryDy=47.5;entryPerimeter=0;endFill=0;startArrow=open;startFill=0;exitX=0.274;exitY=0.014;exitDx=0;exitDy=0;exitPerimeter=0;" parent="1" source="CLevq655X7L3FwRWl0a1-32" target="Wlj1dqBPHQL1adGy5RKg-70" edge="1">
          <mxGeometry width="50" height="50" relative="1" as="geometry">
            <mxPoint x="1030" y="660" as="sourcePoint" />
            <mxPoint x="655" y="212.9" as="targetPoint" />
            <Array as="points">
              <mxPoint x="820" y="140" />
            </Array>
          </mxGeometry>
        </mxCell>
        <mxCell id="Wlj1dqBPHQL1adGy5RKg-99" value="" style="endArrow=none;dashed=1;html=1;rounded=0;exitX=0.875;exitY=0.008;exitDx=0;exitDy=0;exitPerimeter=0;entryX=0.674;entryY=1.006;entryDx=0;entryDy=0;entryPerimeter=0;endFill=0;startArrow=open;startFill=0;" parent="1" source="CLevq655X7L3FwRWl0a1-33" target="Wlj1dqBPHQL1adGy5RKg-69" edge="1">
          <mxGeometry width="50" height="50" relative="1" as="geometry">
            <mxPoint x="290" y="490" as="sourcePoint" />
            <mxPoint x="340" y="440" as="targetPoint" />
          </mxGeometry>
        </mxCell>
        <mxCell id="Wlj1dqBPHQL1adGy5RKg-100" value="" style="endArrow=none;dashed=1;html=1;rounded=0;exitX=0.485;exitY=-0.025;exitDx=0;exitDy=0;exitPerimeter=0;entryX=0.5;entryY=1;entryDx=0;entryDy=0;entryPerimeter=0;endFill=0;startArrow=open;startFill=0;" parent="1" source="CLevq655X7L3FwRWl0a1-31" target="Wlj1dqBPHQL1adGy5RKg-72" edge="1">
          <mxGeometry width="50" height="50" relative="1" as="geometry">
            <mxPoint x="320" y="760" as="sourcePoint" />
            <mxPoint x="370" y="710" as="targetPoint" />
          </mxGeometry>
        </mxCell>
        <mxCell id="Wlj1dqBPHQL1adGy5RKg-101" value="" style="endArrow=none;dashed=1;html=1;rounded=0;exitX=0.17;exitY=-0.001;exitDx=0;exitDy=0;exitPerimeter=0;entryX=0.899;entryY=0.99;entryDx=0;entryDy=0;entryPerimeter=0;endFill=0;startArrow=open;startFill=0;" parent="1" source="Wlj1dqBPHQL1adGy5RKg-76" target="Wlj1dqBPHQL1adGy5RKg-70" edge="1">
          <mxGeometry width="50" height="50" relative="1" as="geometry">
            <mxPoint x="116" y="829" as="sourcePoint" />
            <mxPoint x="105" y="176" as="targetPoint" />
            <Array as="points">
              <mxPoint x="270" y="330" />
            </Array>
          </mxGeometry>
        </mxCell>
        <mxCell id="Wlj1dqBPHQL1adGy5RKg-102" value="" style="endArrow=none;dashed=1;html=1;rounded=0;entryX=0.113;entryY=1.003;entryDx=0;entryDy=0;entryPerimeter=0;endFill=0;startArrow=open;startFill=0;" parent="1" target="Wlj1dqBPHQL1adGy5RKg-66" edge="1">
          <mxGeometry width="50" height="50" relative="1" as="geometry">
            <mxPoint x="126" y="781" as="sourcePoint" />
            <mxPoint x="102.75" y="432.5" as="targetPoint" />
          </mxGeometry>
        </mxCell>
        <mxCell id="Wlj1dqBPHQL1adGy5RKg-104" value="" style="html=1;rounded=0;fillColor=#72C9F7;" parent="1" vertex="1">
          <mxGeometry x="90" y="839.5" width="15" height="15" as="geometry" />
        </mxCell>
        <mxCell id="Wlj1dqBPHQL1adGy5RKg-110" value="" style="html=1;rounded=0;fillColor=#72C9F7;" parent="1" vertex="1">
          <mxGeometry x="214.25" y="110" width="15" height="15" as="geometry" />
        </mxCell>
        <mxCell id="Wlj1dqBPHQL1adGy5RKg-111" value="" style="html=1;rounded=0;fillColor=#72C9F7;" parent="1" vertex="1">
          <mxGeometry x="832" y="112" width="15" height="15" as="geometry" />
        </mxCell>
        <mxCell id="Wlj1dqBPHQL1adGy5RKg-112" value="" style="html=1;rounded=0;fillColor=#72C9F7;" parent="1" vertex="1">
          <mxGeometry x="185.5" y="287.5" width="15" height="15" as="geometry" />
        </mxCell>
        <mxCell id="Wlj1dqBPHQL1adGy5RKg-113" value="" style="html=1;rounded=0;fillColor=#72C9F7;" parent="1" vertex="1">
          <mxGeometry x="500" y="294.5" width="15" height="15" as="geometry" />
        </mxCell>
        <mxCell id="Wlj1dqBPHQL1adGy5RKg-114" value="" style="html=1;rounded=0;fillColor=#72C9F7;" parent="1" vertex="1">
          <mxGeometry x="633" y="422.5" width="15" height="15" as="geometry" />
        </mxCell>
        <mxCell id="Wlj1dqBPHQL1adGy5RKg-115" value="" style="html=1;rounded=0;fillColor=#72C9F7;" parent="1" vertex="1">
          <mxGeometry x="142.5" y="352.5" width="15" height="15" as="geometry" />
        </mxCell>
        <mxCell id="Wlj1dqBPHQL1adGy5RKg-117" value="" style="html=1;rounded=0;fillColor=#72C9F7;" parent="1" vertex="1">
          <mxGeometry x="748" y="399" width="15" height="15" as="geometry" />
        </mxCell>
        <mxCell id="Wlj1dqBPHQL1adGy5RKg-118" value="" style="html=1;rounded=0;fillColor=#72C9F7;" parent="1" vertex="1">
          <mxGeometry x="225" y="320" width="15" height="15" as="geometry" />
        </mxCell>
        <mxCell id="Wlj1dqBPHQL1adGy5RKg-119" value="" style="html=1;rounded=0;fillColor=#72C9F7;" parent="1" vertex="1">
          <mxGeometry x="401" y="320" width="15" height="15" as="geometry" />
        </mxCell>
        <mxCell id="Wlj1dqBPHQL1adGy5RKg-120" value="" style="endArrow=none;html=1;rounded=0;exitX=1;exitY=0.5;exitDx=0;exitDy=0;entryX=0;entryY=0.5;entryDx=0;entryDy=0;" parent="1" source="Wlj1dqBPHQL1adGy5RKg-110" target="Wlj1dqBPHQL1adGy5RKg-111" edge="1">
          <mxGeometry width="50" height="50" relative="1" as="geometry">
            <mxPoint x="290" y="210" as="sourcePoint" />
            <mxPoint x="340" y="160" as="targetPoint" />
          </mxGeometry>
        </mxCell>
        <mxCell id="Wlj1dqBPHQL1adGy5RKg-121" value="" style="endArrow=none;html=1;rounded=0;exitX=1;exitY=0.5;exitDx=0;exitDy=0;entryX=0;entryY=0.5;entryDx=0;entryDy=0;" parent="1" source="Wlj1dqBPHQL1adGy5RKg-118" target="Wlj1dqBPHQL1adGy5RKg-119" edge="1">
          <mxGeometry width="50" height="50" relative="1" as="geometry">
            <mxPoint x="290" y="210" as="sourcePoint" />
            <mxPoint x="340" y="160" as="targetPoint" />
          </mxGeometry>
        </mxCell>
        <mxCell id="Wlj1dqBPHQL1adGy5RKg-122" value="" style="html=1;rounded=0;fillColor=#72c9f7;" parent="1" vertex="1">
          <mxGeometry x="169.5" y="155" width="15" height="15" as="geometry" />
        </mxCell>
        <mxCell id="Wlj1dqBPHQL1adGy5RKg-123" value="" style="html=1;rounded=0;fillColor=#72C9F7;" parent="1" vertex="1">
          <mxGeometry x="214.25" y="140" width="15" height="15" as="geometry" />
        </mxCell>
        <mxCell id="Wlj1dqBPHQL1adGy5RKg-128" value="" style="endArrow=none;html=1;rounded=0;entryX=0.5;entryY=0;entryDx=0;entryDy=0;" parent="1" target="Wlj1dqBPHQL1adGy5RKg-113" edge="1">
          <mxGeometry width="50" height="50" relative="1" as="geometry">
            <mxPoint x="230" y="148" as="sourcePoint" />
            <mxPoint x="340" y="160" as="targetPoint" />
            <Array as="points">
              <mxPoint x="507" y="150" />
            </Array>
          </mxGeometry>
        </mxCell>
        <mxCell id="Wlj1dqBPHQL1adGy5RKg-130" value="" style="endArrow=none;html=1;rounded=0;exitX=0.5;exitY=1;exitDx=0;exitDy=0;entryX=0.5;entryY=0;entryDx=0;entryDy=0;" parent="1" source="Wlj1dqBPHQL1adGy5RKg-122" target="Wlj1dqBPHQL1adGy5RKg-112" edge="1">
          <mxGeometry width="50" height="50" relative="1" as="geometry">
            <mxPoint x="290" y="210" as="sourcePoint" />
            <mxPoint x="340" y="160" as="targetPoint" />
          </mxGeometry>
        </mxCell>
        <mxCell id="Wlj1dqBPHQL1adGy5RKg-132" value="" style="endArrow=none;html=1;rounded=0;entryX=1.002;entryY=0.534;entryDx=0;entryDy=0;exitX=0.5;exitY=0;exitDx=0;exitDy=0;entryPerimeter=0;" parent="1" source="Wlj1dqBPHQL1adGy5RKg-117" target="Wlj1dqBPHQL1adGy5RKg-69" edge="1">
          <mxGeometry width="50" height="50" relative="1" as="geometry">
            <mxPoint x="290" y="210" as="sourcePoint" />
            <mxPoint x="340" y="160" as="targetPoint" />
            <Array as="points">
              <mxPoint x="756" y="330" />
            </Array>
          </mxGeometry>
        </mxCell>
        <mxCell id="Wlj1dqBPHQL1adGy5RKg-134" value="" style="endArrow=none;html=1;rounded=0;exitX=0.5;exitY=1;exitDx=0;exitDy=0;entryX=0;entryY=0.5;entryDx=0;entryDy=0;" parent="1" source="Wlj1dqBPHQL1adGy5RKg-115" target="Wlj1dqBPHQL1adGy5RKg-114" edge="1">
          <mxGeometry width="50" height="50" relative="1" as="geometry">
            <mxPoint x="290" y="210" as="sourcePoint" />
            <mxPoint x="340" y="160" as="targetPoint" />
            <Array as="points">
              <mxPoint x="150" y="430" />
            </Array>
          </mxGeometry>
        </mxCell>
        <mxCell id="Wlj1dqBPHQL1adGy5RKg-136" value="WebPage UI" style="text;strokeColor=none;align=center;fillColor=none;html=1;verticalAlign=middle;whiteSpace=wrap;rounded=0;" parent="1" vertex="1">
          <mxGeometry x="436" y="1111" width="60" height="30" as="geometry" />
        </mxCell>
        <mxCell id="oHmkEmK7ToeGZuagwyeS-9" value="" style="endArrow=none;html=1;rounded=0;exitX=0;exitY=0.5;exitDx=0;exitDy=0;entryX=0.5;entryY=1;entryDx=0;entryDy=0;" edge="1" parent="1" source="Wlj1dqBPHQL1adGy5RKg-89" target="Wlj1dqBPHQL1adGy5RKg-78">
          <mxGeometry width="50" height="50" relative="1" as="geometry">
            <mxPoint x="306" y="1028" as="sourcePoint" />
            <mxPoint x="143" y="970" as="targetPoint" />
            <Array as="points">
              <mxPoint x="129" y="945" />
            </Array>
          </mxGeometry>
        </mxCell>
        <mxCell id="oHmkEmK7ToeGZuagwyeS-10" value="" style="endArrow=none;html=1;rounded=0;exitX=0;exitY=0.5;exitDx=0;exitDy=0;entryX=0.5;entryY=1;entryDx=0;entryDy=0;" edge="1" parent="1">
          <mxGeometry width="50" height="50" relative="1" as="geometry">
            <mxPoint x="669" y="924.5" as="sourcePoint" />
            <mxPoint x="293.5" y="839.5" as="targetPoint" />
            <Array as="points">
              <mxPoint x="294" y="915" />
            </Array>
          </mxGeometry>
        </mxCell>
        <mxCell id="oHmkEmK7ToeGZuagwyeS-11" value="" style="endArrow=none;html=1;rounded=0;exitX=0;exitY=0.5;exitDx=0;exitDy=0;entryX=0.5;entryY=1;entryDx=0;entryDy=0;" edge="1" parent="1" source="Wlj1dqBPHQL1adGy5RKg-88" target="Wlj1dqBPHQL1adGy5RKg-84">
          <mxGeometry width="50" height="50" relative="1" as="geometry">
            <mxPoint x="306" y="1028" as="sourcePoint" />
            <mxPoint x="104" y="1010" as="targetPoint" />
            <Array as="points">
              <mxPoint x="477" y="900" />
            </Array>
          </mxGeometry>
        </mxCell>
        <mxCell id="Wlj1dqBPHQL1adGy5RKg-54" value="" style="html=1;rounded=0;fillColor=#72C9F7;" parent="1" vertex="1">
          <mxGeometry x="245.75" y="814.5" width="15" height="15" as="geometry" />
        </mxCell>
        <mxCell id="oHmkEmK7ToeGZuagwyeS-12" value="" style="endArrow=none;html=1;rounded=0;exitX=0;exitY=0.5;exitDx=0;exitDy=0;entryX=1;entryY=0.5;entryDx=0;entryDy=0;" edge="1" parent="1" source="Wlj1dqBPHQL1adGy5RKg-54" target="oHmkEmK7ToeGZuagwyeS-13">
          <mxGeometry width="50" height="50" relative="1" as="geometry">
            <mxPoint x="422" y="802" as="sourcePoint" />
            <mxPoint x="381" y="802" as="targetPoint" />
            <Array as="points" />
          </mxGeometry>
        </mxCell>
        <mxCell id="oHmkEmK7ToeGZuagwyeS-13" value="" style="html=1;rounded=0;fillColor=#72C9F7;" vertex="1" parent="1">
          <mxGeometry x="196.5" y="833.5" width="15" height="15" as="geometry" />
        </mxCell>
        <mxCell id="oHmkEmK7ToeGZuagwyeS-15" value="" style="html=1;rounded=0;fillColor=#72C9F7;" vertex="1" parent="1">
          <mxGeometry x="355.75" y="773.5" width="15" height="15" as="geometry" />
        </mxCell>
        <mxCell id="oHmkEmK7ToeGZuagwyeS-16" value="" style="html=1;rounded=0;fillColor=#72C9F7;" vertex="1" parent="1">
          <mxGeometry x="413.5" y="784.5" width="15" height="15" as="geometry" />
        </mxCell>
        <mxCell id="oHmkEmK7ToeGZuagwyeS-17" value="" style="endArrow=none;html=1;rounded=0;exitX=0;exitY=0.5;exitDx=0;exitDy=0;entryX=1;entryY=0.5;entryDx=0;entryDy=0;" edge="1" parent="1">
          <mxGeometry width="50" height="50" relative="1" as="geometry">
            <mxPoint x="413.5" y="790.9999999999998" as="sourcePoint" />
            <mxPoint x="370.75" y="782" as="targetPoint" />
            <Array as="points" />
          </mxGeometry>
        </mxCell>
        <mxCell id="oHmkEmK7ToeGZuagwyeS-18" value="" style="html=1;rounded=0;fillColor=#72C9F7;" vertex="1" parent="1">
          <mxGeometry x="428.5" y="834.5" width="15" height="15" as="geometry" />
        </mxCell>
        <mxCell id="oHmkEmK7ToeGZuagwyeS-19" value="" style="html=1;rounded=0;fillColor=#72C9F7;" vertex="1" parent="1">
          <mxGeometry x="159" y="839.5" width="15" height="15" as="geometry" />
        </mxCell>
        <mxCell id="oHmkEmK7ToeGZuagwyeS-20" value="" style="endArrow=none;html=1;rounded=0;exitX=0.5;exitY=1;exitDx=0;exitDy=0;entryX=0.5;entryY=1;entryDx=0;entryDy=0;" edge="1" parent="1" source="oHmkEmK7ToeGZuagwyeS-18" target="oHmkEmK7ToeGZuagwyeS-19">
          <mxGeometry width="50" height="50" relative="1" as="geometry">
            <mxPoint x="423.5" y="800.9999999999998" as="sourcePoint" />
            <mxPoint x="380.75" y="792" as="targetPoint" />
            <Array as="points">
              <mxPoint x="436" y="890" />
              <mxPoint x="167" y="890" />
            </Array>
          </mxGeometry>
        </mxCell>
        <mxCell id="oHmkEmK7ToeGZuagwyeS-21" value="" style="endArrow=none;dashed=1;html=1;rounded=0;entryX=0;entryY=0;entryDx=0;entryDy=47.5;entryPerimeter=0;endFill=0;startArrow=open;startFill=0;" edge="1" parent="1" target="Wlj1dqBPHQL1adGy5RKg-70">
          <mxGeometry width="50" height="50" relative="1" as="geometry">
            <mxPoint x="87" y="800" as="sourcePoint" />
            <mxPoint x="92" y="130.39999999999998" as="targetPoint" />
            <Array as="points">
              <mxPoint x="37" y="800" />
              <mxPoint x="37" y="130" />
            </Array>
          </mxGeometry>
        </mxCell>
        <mxCell id="oHmkEmK7ToeGZuagwyeS-23" value="" style="html=1;rounded=0;fillColor=#72C9F7;" vertex="1" parent="1">
          <mxGeometry x="469.25" y="679" width="15" height="15" as="geometry" />
        </mxCell>
        <mxCell id="oHmkEmK7ToeGZuagwyeS-24" value="" style="endArrow=none;html=1;rounded=0;align=center;verticalAlign=top;endFill=0;labelBackgroundColor=none;endSize=2;exitX=0.5;exitY=0;exitDx=0;exitDy=0;" edge="1" parent="1" source="oHmkEmK7ToeGZuagwyeS-23">
          <mxGeometry relative="1" as="geometry">
            <mxPoint x="456.75" y="671" as="sourcePoint" />
            <mxPoint x="477.25" y="652" as="targetPoint" />
          </mxGeometry>
        </mxCell>
        <mxCell id="oHmkEmK7ToeGZuagwyeS-25" value="" style="shape=requiredInterface;html=1;fontSize=11;align=center;fillColor=none;points=[];aspect=fixed;resizable=0;verticalAlign=bottom;labelPosition=center;verticalLabelPosition=top;flipH=1;rotation=-90;" vertex="1" parent="1">
          <mxGeometry x="474.25" y="644" width="5" height="10" as="geometry" />
        </mxCell>
        <mxCell id="oHmkEmK7ToeGZuagwyeS-28" value="&lt;font style=&quot;font-size: 10px;&quot;&gt;FileSystem&lt;/font&gt;" style="text;html=1;strokeColor=none;fillColor=none;align=center;verticalAlign=middle;whiteSpace=wrap;rounded=0;" vertex="1" parent="1">
          <mxGeometry x="453.5" y="620" width="46.5" height="26" as="geometry" />
        </mxCell>
        <mxCell id="oHmkEmK7ToeGZuagwyeS-29" value="&lt;font style=&quot;font-size: 10px;&quot;&gt;FileSystem&lt;/font&gt;" style="text;html=1;strokeColor=none;fillColor=none;align=center;verticalAlign=middle;whiteSpace=wrap;rounded=0;" vertex="1" parent="1">
          <mxGeometry x="754.5" y="610" width="46.5" height="26" as="geometry" />
        </mxCell>
        <mxCell id="oHmkEmK7ToeGZuagwyeS-30" value="" style="html=1;rounded=0;fillColor=#72C9F7;" vertex="1" parent="1">
          <mxGeometry x="421" y="1080" width="15" height="15" as="geometry" />
        </mxCell>
        <mxCell id="oHmkEmK7ToeGZuagwyeS-31" value="" style="endArrow=none;html=1;rounded=0;align=center;verticalAlign=top;endFill=0;labelBackgroundColor=none;endSize=2;exitX=0.5;exitY=1;exitDx=0;exitDy=0;entryX=0.518;entryY=-0.162;entryDx=0;entryDy=0;entryPerimeter=0;" edge="1" parent="1" target="oHmkEmK7ToeGZuagwyeS-32" source="oHmkEmK7ToeGZuagwyeS-30">
          <mxGeometry relative="1" as="geometry">
            <mxPoint x="847" y="665" as="targetPoint" />
            <mxPoint x="798" y="689" as="sourcePoint" />
          </mxGeometry>
        </mxCell>
        <mxCell id="oHmkEmK7ToeGZuagwyeS-32" value="" style="ellipse;html=1;fontSize=11;align=center;fillColor=#72C9F7;points=[];aspect=fixed;resizable=0;verticalAlign=bottom;labelPosition=center;verticalLabelPosition=top;flipH=1;" vertex="1" parent="1">
          <mxGeometry x="424.5" y="1122" width="8" height="8" as="geometry" />
        </mxCell>
        <mxCell id="oHmkEmK7ToeGZuagwyeS-34" value="" style="endArrow=none;html=1;rounded=0;exitX=0;exitY=0;exitDx=0;exitDy=0;entryX=0.5;entryY=1;entryDx=0;entryDy=0;" edge="1" parent="1" source="oHmkEmK7ToeGZuagwyeS-30" target="Wlj1dqBPHQL1adGy5RKg-104">
          <mxGeometry width="50" height="50" relative="1" as="geometry">
            <mxPoint x="678" y="958" as="sourcePoint" />
            <mxPoint x="139" y="880" as="targetPoint" />
            <Array as="points">
              <mxPoint x="98" y="980" />
            </Array>
          </mxGeometry>
        </mxCell>
        <mxCell id="oHmkEmK7ToeGZuagwyeS-37" value="" style="html=1;rounded=0;fillColor=#72C9F7;" vertex="1" parent="1">
          <mxGeometry x="336.25" y="824.5" width="15" height="15" as="geometry" />
        </mxCell>
        <mxCell id="oHmkEmK7ToeGZuagwyeS-38" value="" style="endArrow=none;html=1;rounded=0;exitX=0.25;exitY=0;exitDx=0;exitDy=0;entryX=0.5;entryY=1;entryDx=0;entryDy=0;" edge="1" parent="1" source="oHmkEmK7ToeGZuagwyeS-30" target="oHmkEmK7ToeGZuagwyeS-37">
          <mxGeometry width="50" height="50" relative="1" as="geometry">
            <mxPoint x="380" y="1140" as="sourcePoint" />
            <mxPoint x="400" y="980" as="targetPoint" />
            <Array as="points">
              <mxPoint x="344" y="1000" />
            </Array>
          </mxGeometry>
        </mxCell>
        <mxCell id="oHmkEmK7ToeGZuagwyeS-39" value="" style="html=1;rounded=0;fillColor=#72C9F7;" vertex="1" parent="1">
          <mxGeometry x="512.5" y="833.5" width="15" height="15" as="geometry" />
        </mxCell>
        <mxCell id="oHmkEmK7ToeGZuagwyeS-40" value="" style="endArrow=none;html=1;rounded=0;exitX=0.5;exitY=0;exitDx=0;exitDy=0;entryX=0.5;entryY=1;entryDx=0;entryDy=0;" edge="1" parent="1" source="oHmkEmK7ToeGZuagwyeS-30" target="oHmkEmK7ToeGZuagwyeS-39">
          <mxGeometry width="50" height="50" relative="1" as="geometry">
            <mxPoint x="435" y="1090" as="sourcePoint" />
            <mxPoint x="354" y="850" as="targetPoint" />
            <Array as="points">
              <mxPoint x="520" y="980" />
            </Array>
          </mxGeometry>
        </mxCell>
        <mxCell id="oHmkEmK7ToeGZuagwyeS-41" value="" style="endArrow=none;html=1;rounded=0;exitX=1;exitY=0;exitDx=0;exitDy=0;entryX=0.5;entryY=1;entryDx=0;entryDy=0;" edge="1" parent="1" source="oHmkEmK7ToeGZuagwyeS-30" target="oHmkEmK7ToeGZuagwyeS-42">
          <mxGeometry width="50" height="50" relative="1" as="geometry">
            <mxPoint x="439" y="1090" as="sourcePoint" />
            <mxPoint x="530" y="859" as="targetPoint" />
            <Array as="points">
              <mxPoint x="878" y="1040" />
            </Array>
          </mxGeometry>
        </mxCell>
        <mxCell id="oHmkEmK7ToeGZuagwyeS-42" value="" style="html=1;rounded=0;fillColor=#72C9F7;" vertex="1" parent="1">
          <mxGeometry x="870" y="773.5" width="15" height="15" as="geometry" />
        </mxCell>
        <mxCell id="oHmkEmK7ToeGZuagwyeS-44" value="" style="html=1;rounded=0;fillColor=#72C9F7;" vertex="1" parent="1">
          <mxGeometry x="780.5" y="705" width="15" height="15" as="geometry" />
        </mxCell>
        <mxCell id="oHmkEmK7ToeGZuagwyeS-45" value="" style="endArrow=none;html=1;rounded=0;entryX=0.5;entryY=1;entryDx=0;entryDy=0;exitX=0.5;exitY=0;exitDx=0;exitDy=0;" edge="1" parent="1" source="oHmkEmK7ToeGZuagwyeS-44" target="CLevq655X7L3FwRWl0a1-53">
          <mxGeometry width="50" height="50" relative="1" as="geometry">
            <mxPoint x="840" y="780" as="sourcePoint" />
            <mxPoint x="890" y="730" as="targetPoint" />
          </mxGeometry>
        </mxCell>
        <mxCell id="oHmkEmK7ToeGZuagwyeS-46" value="" style="html=1;rounded=0;fillColor=#72C9F7;" vertex="1" parent="1">
          <mxGeometry x="469.25" y="769.5" width="15" height="15" as="geometry" />
        </mxCell>
        <mxCell id="oHmkEmK7ToeGZuagwyeS-47" value="" style="endArrow=none;html=1;rounded=0;align=center;verticalAlign=top;endFill=0;labelBackgroundColor=none;endSize=2;exitX=0.5;exitY=0;exitDx=0;exitDy=0;entryX=0.5;entryY=1;entryDx=0;entryDy=0;" edge="1" parent="1" source="oHmkEmK7ToeGZuagwyeS-46" target="oHmkEmK7ToeGZuagwyeS-23">
          <mxGeometry relative="1" as="geometry">
            <mxPoint x="487" y="689" as="sourcePoint" />
            <mxPoint x="487.25" y="662" as="targetPoint" />
          </mxGeometry>
        </mxCell>
        <mxCell id="oHmkEmK7ToeGZuagwyeS-48" value="&amp;lt;&amp;lt;manifest&amp;gt;&amp;gt;" style="text;html=1;strokeColor=none;fillColor=none;align=center;verticalAlign=middle;whiteSpace=wrap;rounded=0;" vertex="1" parent="1">
          <mxGeometry x="880" y="500" width="60" height="30" as="geometry" />
        </mxCell>
        <mxCell id="oHmkEmK7ToeGZuagwyeS-50" value="&amp;lt;&amp;lt;manifest&amp;gt;&amp;gt;" style="text;html=1;strokeColor=none;fillColor=none;align=center;verticalAlign=middle;whiteSpace=wrap;rounded=0;" vertex="1" parent="1">
          <mxGeometry x="754.5" y="220" width="60" height="30" as="geometry" />
        </mxCell>
        <mxCell id="oHmkEmK7ToeGZuagwyeS-52" value="&amp;lt;&amp;lt;manifest&amp;gt;&amp;gt;" style="text;html=1;strokeColor=none;fillColor=none;align=center;verticalAlign=middle;whiteSpace=wrap;rounded=0;" vertex="1" parent="1">
          <mxGeometry x="648" y="510" width="60" height="30" as="geometry" />
        </mxCell>
        <mxCell id="oHmkEmK7ToeGZuagwyeS-53" value="&amp;lt;&amp;lt;manifest&amp;gt;&amp;gt;" style="text;html=1;strokeColor=none;fillColor=none;align=center;verticalAlign=middle;whiteSpace=wrap;rounded=0;" vertex="1" parent="1">
          <mxGeometry x="532.5" y="490" width="60" height="30" as="geometry" />
        </mxCell>
        <mxCell id="oHmkEmK7ToeGZuagwyeS-54" value="&amp;lt;&amp;lt;manifest&amp;gt;&amp;gt;" style="text;html=1;strokeColor=none;fillColor=none;align=center;verticalAlign=middle;whiteSpace=wrap;rounded=0;" vertex="1" parent="1">
          <mxGeometry x="121.5" y="500" width="60" height="30" as="geometry" />
        </mxCell>
        <mxCell id="oHmkEmK7ToeGZuagwyeS-55" value="&amp;lt;&amp;lt;manifest&amp;gt;&amp;gt;" style="text;html=1;strokeColor=none;fillColor=none;align=center;verticalAlign=middle;whiteSpace=wrap;rounded=0;" vertex="1" parent="1">
          <mxGeometry x="-40" y="590" width="60" height="30" as="geometry" />
        </mxCell>
        <mxCell id="oHmkEmK7ToeGZuagwyeS-56" value="&amp;lt;&amp;lt;manifest&amp;gt;&amp;gt;" style="text;html=1;strokeColor=none;fillColor=none;align=center;verticalAlign=middle;whiteSpace=wrap;rounded=0;" vertex="1" parent="1">
          <mxGeometry x="206" y="616" width="60" height="30" as="geometry" />
        </mxCell>
        <mxCell id="oHmkEmK7ToeGZuagwyeS-57" value="&amp;lt;&amp;lt;manifest&amp;gt;&amp;gt;" style="text;html=1;strokeColor=none;fillColor=none;align=center;verticalAlign=middle;whiteSpace=wrap;rounded=0;" vertex="1" parent="1">
          <mxGeometry x="320" y="500" width="60" height="30" as="geometry" />
        </mxCell>
        <mxCell id="oHmkEmK7ToeGZuagwyeS-58" value="&amp;lt;&amp;lt;manifest&amp;gt;&amp;gt;" style="text;html=1;strokeColor=none;fillColor=none;align=center;verticalAlign=middle;whiteSpace=wrap;rounded=0;" vertex="1" parent="1">
          <mxGeometry x="406" y="500" width="60" height="30" as="geometry" />
        </mxCell>
      </root>
    </mxGraphModel>
  </diagram>
</mxfile>
